<svg width="32.000000" height="32.000000" viewBox="0 0 32 32" fill="none" xmlns="http://www.w3.org/2000/svg" xmlns:xlink="http://www.w3.org/1999/xlink">
	<desc>
			Created with Pixso.
	</desc>
	<defs>
		<filter id="filter_2_7_dd" x="0.000000" y="0.000000" width="32.000000" height="32.000000" filterUnits="userSpaceOnUse" color-interpolation-filters="sRGB">
			<feFlood flood-opacity="0" result="BackgroundImageFix"/>
			<feGaussianBlur in="BackgroundImage" stdDeviation="1.33333"/>
			<feComposite in2="SourceAlpha" operator="in" result="effect_backgroundBlur_1"/>
			<feBlend mode="normal" in="SourceGraphic" in2="effect_backgroundBlur_1" result="shape"/>
		</filter>
		<clipPath id="clip2_5">
			<rect id="画板 1" width="32.000000" height="32.000000" fill="white" fill-opacity="0"/>
		</clipPath>
	</defs>
	<rect id="画板 1" width="32.000000" height="32.000000" fill="#FFFFFF" fill-opacity="0"/>
	<g clip-path="url(#clip2_5)">
		<g filter="url(#filter_2_7_dd)">
			<circle id="椭圆 1" cx="16.000000" cy="16.000000" r="16.000000" fill="#E70000" fill-opacity="1.000000"/>
		</g>
		<path id="发" d="M14.64 6.34Q14.78 6.48 15.06 6.48Q15.2 6.34 15.34 6.25Q15.9 6.53 16.37 7.09Q16.42 7.46 16.46 7.89Q16 10.14 15.43 12.57Q15.43 12.67 15.53 12.76Q17.31 12.34 19.09 11.78Q19.84 11.82 20.45 11.68Q20.87 11.96 21.29 12.34Q21.29 12.38 21.3 12.43Q21.34 12.71 21.62 12.95Q21.34 13.32 20.92 13.65Q18.85 14.17 16.84 14.73Q16.18 14.73 15.67 14.82Q15.67 14.73 16.14 14.59Q16.14 14.42 16.06 14.36Q16.05 14.36 16.04 14.35Q15.39 14.73 14.68 15.15L14.68 15.71Q14.78 15.81 14.87 16Q14.9 15.93 14.94 15.87Q15.04 15.73 15.25 15.67Q16.98 15.57 18.67 15.57Q19.37 15.62 20.12 15.76Q21.15 16.09 22.23 16.51L22.65 16.93Q22.75 17.35 22.93 17.78Q22.89 18.06 22.89 18.34Q22.23 19.56 21.53 20.78Q22.32 21.06 23.21 21.34Q23.73 21.76 24.25 22.14Q24.29 22.65 24.29 23.12Q24.1 23.26 24.01 23.45Q23.85 23.42 23.71 23.47Q23.62 23.51 23.54 23.59L22.37 23.59Q21.93 23.33 21.45 23.16Q20.88 22.94 20.26 22.84Q19.65 23.45 19.28 24.15Q19.12 24.15 19 24.21Q18.86 24.28 18.76 24.43Q18.74 24.36 18.69 24.34Q18.64 24.32 18.57 24.34Q18.5 24.36 18.46 24.41Q18.41 24.46 18.39 24.53Q18.26 24.5 18.16 24.44Q18.08 24.38 18.01 24.29Q17.5 24.25 17.12 24.2Q17.12 24 17.02 23.87Q16.99 23.82 16.93 23.78Q16.89 23.79 16.84 23.8Q16.64 23.84 16.42 23.73Q16.37 23.54 16.51 23.31Q16.51 23.3 16.52 23.3Q16.57 23.27 16.7 23.35L17.64 22.14L17.64 21.85Q16.42 21.34 15.34 20.73Q15.18 20.34 14.9 20.11Q14.84 20.07 14.78 20.03Q14.44 20.07 14.29 19.92Q14.27 19.9 14.26 19.89Q14.35 19.8 14.4 19.7Q14.43 19.63 14.45 19.56Q14.31 19.23 14.31 19L14.45 19.14Q14.76 19 15.05 19.04Q15.15 19.05 15.25 19.09Q15.4 19.06 15.48 18.96Q15.51 18.91 15.53 18.85Q15.76 18.81 16.09 18.81Q17.45 19.28 18.85 19.75Q19.06 19.17 19.41 18.7Q19.46 18.64 19.51 18.57Q19.44 18.26 19.53 17.99Q19.56 17.91 19.6 17.82Q18.95 17.68 18.34 17.68Q16.32 17.78 14.4 17.96L14.26 17.82Q14.17 17.8 14.11 17.83Q14.05 17.87 14.03 17.96Q13.7 19.79 13.42 21.62Q13.32 22.28 13.37 23.03Q13.32 23.31 13.14 23.59Q12.76 23.64 12.48 23.5Q12.25 23.59 12.01 23.64Q11.4 22.93 10.98 22.14Q10.8 20.79 10.96 19.5Q10.97 19.43 10.98 19.37Q11.12 19.04 11.21 18.76Q11.17 18.1 11.31 17.54Q11.31 17.52 11.32 17.5Q11.37 17.34 11.54 17.21Q11.45 16.84 11.52 16.56Q11.58 16.33 11.71 16.17Q11.74 16.13 11.78 16.09Q11.73 15.81 11.78 15.57L11.64 15.43L10.14 15.81Q9.43 15.71 8.82 15.62Q8.45 15.1 8.17 14.54Q7.89 14.54 7.75 14.45L7.84 13.32Q8.21 12.15 8.5 11.03L8.5 10.56Q8.51 10.49 8.54 10.43Q8.61 10.28 8.78 10.18Q8.82 9.57 8.82 9.1Q8.85 9.1 8.88 9.1Q8.99 9.1 9.1 9.25Q9.17 9.2 9.23 9.14Q9.29 9.08 9.34 9.01Q9.49 8.99 9.63 9.02Q9.8 9.05 9.95 9.15Q10.04 9.06 10.09 8.96Q10.42 9.06 10.75 9.32Q10.77 9.34 10.8 9.36Q11.09 9.61 11.26 10Q11.12 10.46 11.12 11.03Q10.98 11.17 10.89 11.4Q10.79 12.34 10.6 13.28Q10.65 13.37 10.75 13.46Q11.45 13.28 12.34 13.23L12.53 12.95Q12.56 12.73 12.59 12.51Q12.83 11.09 13.28 9.71Q13.32 8.92 13.46 8.17Q13.62 7.9 13.73 7.61Q13.9 7.2 13.98 6.76Q14.03 6.71 14.17 6.67Q14.12 6.46 14.01 6.4Q13.99 6.39 13.98 6.39Q14.26 6.34 14.64 6.34ZM17.64 8.17L18.06 8.17L18.71 7.89Q19.23 8.03 19.7 8.5Q19.75 8.87 19.98 9.25L19.98 10.09Q19.84 10.2 19.8 10.33Q19.79 10.37 19.79 10.42Q19.76 10.43 19.73 10.44Q19.44 10.53 19.18 10.75L18.2 10.75Q17.87 10.56 17.59 10.51Q17.68 10.42 17.82 10.32Q17.51 10.01 17.16 9.95Q17.14 9.95 17.12 9.95Q17.12 9.59 16.95 9.36Q16.94 9.35 16.93 9.34Q16.92 9.25 16.92 9.17Q16.92 8.83 17.07 8.5Q17.13 8.38 17.22 8.32Q17.28 8.28 17.35 8.26L17.35 8.26Q17.32 8.28 17.45 8.5Q17.54 8.5 17.64 8.45L17.64 8.17ZM17.35 8.26Q17.35 8.26 17.35 8.26Q17.35 8.26 17.35 8.26ZM15.53 14.4L15.39 14.26Q15.21 14.23 15.11 14.3Q15.08 14.32 15.06 14.35Q15.13 14.42 15.13 14.5Q15.13 14.57 15.06 14.64Q15.17 14.64 15.27 14.6Q15.42 14.54 15.53 14.4ZM15.06 14.73Q14.78 14.54 14.68 14.31Q14.54 14.35 14.5 14.45Q14.58 14.51 14.64 14.6Q14.7 14.7 14.73 14.82Q14.88 14.82 15 14.76Q15.03 14.75 15.06 14.73ZM14.4 15.05Q14.38 15.05 14.35 15.06Q14.32 15.1 14.3 15.16Q14.25 15.32 14.35 15.53Q14.39 15.56 14.43 15.56Q14.49 15.56 14.54 15.48Q14.5 15.29 14.54 15.15Q14.47 15.05 14.4 15.05ZM14.57 16.88Q14.51 16.84 14.4 16.89Q14.34 16.97 14.34 17.05Q14.34 17.15 14.45 17.26Q14.54 17.17 14.68 17.07Q14.66 16.92 14.57 16.88Z" fill="#FFFFFF" fill-opacity="1.000000" fill-rule="evenodd"/>
	</g>
</svg>
